<?xml version="1.0" standalone="no"?>
<!DOCTYPE svg PUBLIC "-//W3C//DTD SVG 20010904//EN"
 "http://www.w3.org/TR/2001/REC-SVG-20010904/DTD/svg10.dtd">
<svg version="1.0" xmlns="http://www.w3.org/2000/svg"
 width="364.000000pt" height="361.000000pt" viewBox="0 0 364.000000 361.000000"
 preserveAspectRatio="xMidYMid meet">

<g transform="translate(0.000000,361.000000) scale(0.100000,-0.100000)"
fill="#000000" stroke="none">
<path d="M2445 3092 c142 -74 241 -148 360 -267 216 -215 349 -464 417 -778
32 -147 32 -436 0 -584 -30 -137 -73 -257 -137 -381 -202 -388 -561 -659 -998
-754 -148 -32 -437 -32 -584 0 -314 68 -563 201 -778 417 -119 119 -193 218
-267 360 -26 49 -48 86 -48 81 0 -4 27 -61 60 -125 209 -405 581 -684 1040
-782 87 -19 136 -23 290 -23 205 0 311 17 485 76 429 145 788 504 933 933 59
174 76 280 76 485 0 154 -4 203 -23 290 -98 459 -377 831 -782 1040 -64 33
-121 60 -125 60 -5 0 32 -22 81 -48z"/>
<path d="M2300 3050 c8 -5 20 -10 25 -10 6 0 3 5 -5 10 -8 5 -19 10 -25 10 -5
0 -3 -5 5 -10z"/>
<path d="M2432 2986 c306 -174 521 -431 637 -759 57 -163 75 -272 75 -467 1
-129 -4 -198 -17 -262 -54 -268 -170 -489 -360 -685 -199 -205 -434 -333 -715
-390 -132 -27 -404 -24 -539 5 -417 90 -742 327 -949 690 -55 97 -58 82 -3
-18 76 -139 133 -215 254 -335 129 -129 215 -192 365 -268 200 -100 379 -141
620 -141 299 0 540 73 790 239 97 64 301 268 365 365 166 250 239 491 239 790
0 241 -41 420 -141 620 -76 150 -139 236 -268 365 -120 121 -196 178 -335 254
-100 55 -115 52 -18 -3z"/>
<path d="M2280 2950 c8 -5 20 -10 25 -10 6 0 3 5 -5 10 -8 5 -19 10 -25 10 -5
0 -3 -5 5 -10z"/>
<path d="M2409 2887 c295 -176 510 -463 597 -796 118 -456 -6 -914 -335 -1233
-229 -223 -495 -340 -811 -355 -485 -24 -949 221 -1190 629 -45 75 -50 68 -7
-9 96 -170 254 -344 399 -441 156 -105 345 -182 518 -213 97 -17 343 -17 440
0 173 31 362 108 518 213 99 66 264 231 330 330 105 156 182 345 213 518 17
97 17 343 0 440 -68 384 -309 722 -653 916 -76 43 -90 44 -19 1z"/>
<path d="M2326 2816 c113 -60 185 -115 279 -211 213 -216 328 -488 342 -806
14 -318 -96 -612 -316 -841 -233 -245 -544 -370 -880 -355 -318 14 -590 129
-806 342 -96 94 -151 166 -211 279 -54 101 -58 93 -5 -12 167 -329 471 -560
841 -639 117 -24 343 -24 460 0 486 103 844 461 947 947 24 117 24 343 0 460
-64 299 -220 548 -456 726 -76 57 -245 154 -268 154 -4 0 29 -20 73 -44z"/>
<path d="M2320 2706 c525 -309 691 -1043 350 -1545 -55 -83 -158 -190 -239
-252 -88 -67 -245 -143 -361 -174 -126 -35 -314 -44 -450 -21 -328 53 -617
246 -776 516 -24 41 -44 70 -44 65 0 -18 97 -174 149 -239 131 -165 335 -300
544 -360 437 -127 910 30 1182 392 321 428 292 1008 -69 1409 -26 29 -76 75
-112 104 -65 52 -221 149 -239 149 -5 0 24 -20 65 -44z"/>
<path d="M2250 2636 c0 -3 13 -12 29 -21 57 -29 179 -135 235 -204 166 -203
244 -440 233 -701 -12 -253 -100 -453 -277 -630 -177 -177 -377 -265 -630
-277 -261 -11 -498 67 -701 233 -69 56 -175 178 -204 235 -9 16 -18 29 -21 29
-12 0 55 -107 114 -180 124 -156 322 -282 527 -336 86 -23 120 -27 245 -27
125 0 159 4 245 27 355 94 627 366 721 721 23 86 27 120 27 245 0 125 -4 159
-27 245 -54 205 -180 403 -336 527 -73 59 -180 126 -180 114z"/>
<path d="M2195 2554 c6 -5 37 -28 69 -49 166 -111 300 -303 356 -511 31 -113
38 -294 16 -405 -70 -345 -330 -605 -675 -675 -111 -22 -292 -15 -405 16 -208
56 -400 190 -511 356 -52 79 -65 90 -30 29 73 -130 213 -272 336 -342 164 -93
369 -136 546 -114 218 27 376 104 533 261 157 157 234 315 261 533 22 177 -21
382 -114 546 -45 80 -170 220 -245 274 -48 35 -155 98 -137 81z"/>
<path d="M2180 2447 c0 -2 18 -16 41 -31 105 -70 223 -224 274 -360 56 -149
71 -326 39 -469 -34 -153 -137 -321 -259 -420 -76 -61 -219 -131 -312 -151
-143 -32 -320 -17 -469 39 -136 51 -290 169 -360 274 -24 37 -45 58 -28 29
110 -189 296 -329 509 -384 95 -24 275 -24 370 0 242 62 437 225 540 449 51
112 69 196 69 327 0 214 -71 392 -219 549 -52 55 -195 164 -195 148z"/>
<path d="M2185 2319 c126 -105 218 -254 250 -404 19 -91 19 -245 0 -320 -46
-182 -175 -345 -335 -423 -112 -55 -184 -72 -300 -72 -230 1 -423 90 -569 265
l-33 40 18 -34 c31 -58 154 -175 229 -219 278 -162 620 -119 846 107 226 226
269 568 107 846 -44 75 -161 198 -219 229 l-34 18 40 -33z"/>
<path d="M2120 2242 c19 -17 38 -31 41 -32 15 -1 102 -125 129 -182 43 -92 60
-171 60 -273 0 -163 -49 -284 -160 -395 -111 -111 -232 -160 -395 -160 -102 0
-181 17 -273 60 -57 27 -181 114 -182 129 -1 3 -15 22 -32 41 l-31 35 19 -34
c11 -19 49 -64 85 -100 231 -233 606 -233 839 -1 232 233 232 608 -1 839 -36
36 -81 74 -100 85 l-34 19 35 -31z"/>
<path d="M590 1275 c0 -5 5 -17 10 -25 5 -8 10 -10 10 -5 0 6 -5 17 -10 25 -5
8 -10 11 -10 5z"/>
<path d="M490 1255 c0 -5 5 -17 10 -25 5 -8 10 -10 10 -5 0 6 -5 17 -10 25 -5
8 -10 11 -10 5z"/>
</g>
</svg>
